<?xml version="1.0" encoding="UTF-8" standalone="no"?>
<!DOCTYPE svg PUBLIC "-//W3C//DTD SVG 1.1//EN"
"http://www.w3.org/Graphics/SVG/1.1/DTD/svg11.dtd">
<svg viewBox="0 0 935 1540" version="1.1" xmlns="http://www.w3.org/2000/svg" xmlns:xlink="http://www.w3.org/1999/xlink">
<defs>
<style type="text/css"><![CDATA[
.g0_1{
fill: #000;
}
.g1_1{
fill: #00F;
}
]]></style>
</defs>
<path fill-rule="evenodd" d="M100.1,924.7h.8v-.8h-.8v.8Z" class="g0_1"/>
<path fill-rule="evenodd" d="M100.1,924.7h.8v-.8h-.8v.8Z" class="g0_1"/>
<path fill-rule="evenodd" d="M100.9,924.7h107v-.8h-107v.8Z" class="g0_1"/>
<path fill-rule="evenodd" d="M207.9,924.7h.8v-.8h-.8v.8Z" class="g0_1"/>
<path fill-rule="evenodd" d="M208.7,924.7H865v-.8H208.7v.8Z" class="g0_1"/>
<path fill-rule="evenodd" d="M865,924.7h.7v-.8H865v.8Z" class="g0_1"/>
<path fill-rule="evenodd" d="M865,924.7h.7v-.8H865v.8Z" class="g0_1"/>
<path fill-rule="evenodd" d="M100.1,943.9h.8V924.7h-.8v19.2Z" class="g0_1"/>
<path fill-rule="evenodd" d="M207.9,943.9h.8V924.7h-.8v19.2Z" class="g0_1"/>
<path fill-rule="evenodd" d="M865,943.9h.7V924.7H865v19.2Z" class="g0_1"/>
<path fill-rule="evenodd" d="M100.1,944.6h.8v-.7h-.8v.7Z" class="g0_1"/>
<path fill-rule="evenodd" d="M100.9,944.6h107v-.7h-107v.7Z" class="g0_1"/>
<path fill-rule="evenodd" d="M207.9,944.6h.8v-.7h-.8v.7Z" class="g0_1"/>
<path fill-rule="evenodd" d="M208.7,944.6H272v-.7H208.7v.7Z" class="g0_1"/>
<path fill-rule="evenodd" d="M272,944.6h.7v-.7H272v.7Z" class="g0_1"/>
<path fill-rule="evenodd" d="M272.7,944.6H409.1v-.7H272.7v.7Z" class="g0_1"/>
<path fill-rule="evenodd" d="M409.1,944.6h.7v-.7h-.7v.7Z" class="g0_1"/>
<path fill-rule="evenodd" d="M409.8,944.6H494v-.7H409.8v.7Z" class="g0_1"/>
<path fill-rule="evenodd" d="M494,944.6h.7v-.7H494v.7Z" class="g0_1"/>
<path fill-rule="evenodd" d="M494.7,944.6H695.5v-.7H494.7v.7Z" class="g0_1"/>
<path fill-rule="evenodd" d="M695.5,944.6h.8v-.7h-.8v.7Z" class="g0_1"/>
<path fill-rule="evenodd" d="M696.3,944.6H865v-.7H696.3v.7Z" class="g0_1"/>
<path fill-rule="evenodd" d="M865,944.6h.7v-.7H865v.7Z" class="g0_1"/>
<path fill-rule="evenodd" d="M100.1,964.1h.8V944.6h-.8v19.5Z" class="g0_1"/>
<path fill-rule="evenodd" d="M207.9,964.1h.8V944.6h-.8v19.5Z" class="g0_1"/>
<path fill-rule="evenodd" d="M272,964.1h.7V944.6H272v19.5Z" class="g0_1"/>
<path fill-rule="evenodd" d="M409.1,964.1h.7V944.6h-.7v19.5Z" class="g0_1"/>
<path fill-rule="evenodd" d="M494,964.1h.7V944.6H494v19.5Z" class="g0_1"/>
<path fill-rule="evenodd" d="M695.5,964.1h.8V944.6h-.8v19.5Z" class="g0_1"/>
<path fill-rule="evenodd" d="M865,964.1h.7V944.6H865v19.5Z" class="g0_1"/>
<path fill-rule="evenodd" d="M100.1,964.8h.8v-.7h-.8v.7Z" class="g0_1"/>
<path fill-rule="evenodd" d="M100.9,964.8h107v-.7h-107v.7Z" class="g0_1"/>
<path fill-rule="evenodd" d="M207.9,964.8h.8v-.7h-.8v.7Z" class="g0_1"/>
<path fill-rule="evenodd" d="M208.7,964.8H272v-.7H208.7v.7Z" class="g0_1"/>
<path fill-rule="evenodd" d="M272,964.8h.7v-.7H272v.7Z" class="g0_1"/>
<path fill-rule="evenodd" d="M272.7,964.8H409.1v-.7H272.7v.7Z" class="g0_1"/>
<path fill-rule="evenodd" d="M409.1,964.8h.7v-.7h-.7v.7Z" class="g0_1"/>
<path fill-rule="evenodd" d="M409.8,964.8H494v-.7H409.8v.7Z" class="g0_1"/>
<path fill-rule="evenodd" d="M494,964.8h.7v-.7H494v.7Z" class="g0_1"/>
<path fill-rule="evenodd" d="M494.7,964.8H695.5v-.7H494.7v.7Z" class="g0_1"/>
<path fill-rule="evenodd" d="M695.5,964.8h.8v-.7h-.8v.7Z" class="g0_1"/>
<path fill-rule="evenodd" d="M696.3,964.8H865v-.7H696.3v.7Z" class="g0_1"/>
<path fill-rule="evenodd" d="M865,964.8h.7v-.7H865v.7Z" class="g0_1"/>
<path fill-rule="evenodd" d="M100.1,984.1h.8V964.8h-.8v19.3Z" class="g0_1"/>
<path fill-rule="evenodd" d="M207.9,984.1h.8V964.8h-.8v19.3Z" class="g0_1"/>
<path fill-rule="evenodd" d="M272,984.1h.7V964.8H272v19.3Z" class="g0_1"/>
<path fill-rule="evenodd" d="M409.1,984.1h.7V964.8h-.7v19.3Z" class="g0_1"/>
<path fill-rule="evenodd" d="M494,984.1h.7V964.8H494v19.3Z" class="g0_1"/>
<path fill-rule="evenodd" d="M695.5,984.1h.8V964.8h-.8v19.3Z" class="g0_1"/>
<path fill-rule="evenodd" d="M865,984.1h.7V964.8H865v19.3Z" class="g0_1"/>
<path fill-rule="evenodd" d="M502.4,1002.8H683.6v-.8H502.4v.8Z" class="g1_1"/>
<path fill-rule="evenodd" d="M100.1,984.8h.8v-.7h-.8v.7Z" class="g0_1"/>
<path fill-rule="evenodd" d="M207.9,984.8h.8v-.7h-.8v.7Z" class="g0_1"/>
<path fill-rule="evenodd" d="M208.7,984.8H272v-.7H208.7v.7Z" class="g0_1"/>
<path fill-rule="evenodd" d="M272,984.8h.7v-.7H272v.7Z" class="g0_1"/>
<path fill-rule="evenodd" d="M272.7,984.8H409.1v-.7H272.7v.7Z" class="g0_1"/>
<path fill-rule="evenodd" d="M409.1,984.8h.7v-.7h-.7v.7Z" class="g0_1"/>
<path fill-rule="evenodd" d="M409.8,984.8H494v-.7H409.8v.7Z" class="g0_1"/>
<path fill-rule="evenodd" d="M494,984.8h.7v-.7H494v.7Z" class="g0_1"/>
<path fill-rule="evenodd" d="M494.7,984.8H695.5v-.7H494.7v.7Z" class="g0_1"/>
<path fill-rule="evenodd" d="M695.5,984.8h.8v-.7h-.8v.7Z" class="g0_1"/>
<path fill-rule="evenodd" d="M696.3,984.8H865v-.7H696.3v.7Z" class="g0_1"/>
<path fill-rule="evenodd" d="M865,984.8h.7v-.7H865v.7Z" class="g0_1"/>
<path fill-rule="evenodd" d="M100.1,1004.2h.8V984.8h-.8v19.4Z" class="g0_1"/>
<path fill-rule="evenodd" d="M207.9,1004.2h.8V984.8h-.8v19.4Z" class="g0_1"/>
<path fill-rule="evenodd" d="M272,1004.2h.7V984.8H272v19.4Z" class="g0_1"/>
<path fill-rule="evenodd" d="M409.1,1004.2h.7V984.8h-.7v19.4Z" class="g0_1"/>
<path fill-rule="evenodd" d="M494,1004.2h.7V984.8H494v19.4Z" class="g0_1"/>
<path fill-rule="evenodd" d="M695.5,1004.2h.8V984.8h-.8v19.4Z" class="g0_1"/>
<path fill-rule="evenodd" d="M865,1004.2h.7V984.8H865v19.4Z" class="g0_1"/>
<path fill-rule="evenodd" d="M100.1,1005h.8v-.8h-.8v.8Z" class="g0_1"/>
<path fill-rule="evenodd" d="M207.9,1005h.8v-.8h-.8v.8Z" class="g0_1"/>
<path fill-rule="evenodd" d="M208.7,1005H272v-.8H208.7v.8Z" class="g0_1"/>
<path fill-rule="evenodd" d="M272,1005h.7v-.8H272v.8Z" class="g0_1"/>
<path fill-rule="evenodd" d="M272.7,1005H409.1v-.8H272.7v.8Z" class="g0_1"/>
<path fill-rule="evenodd" d="M409.1,1005h.7v-.8h-.7v.8Z" class="g0_1"/>
<path fill-rule="evenodd" d="M409.8,1005H494v-.8H409.8v.8Z" class="g0_1"/>
<path fill-rule="evenodd" d="M494,1005h.7v-.8H494v.8Z" class="g0_1"/>
<path fill-rule="evenodd" d="M494.7,1005H695.5v-.8H494.7v.8Z" class="g0_1"/>
<path fill-rule="evenodd" d="M695.5,1005h.8v-.8h-.8v.8Z" class="g0_1"/>
<path fill-rule="evenodd" d="M696.3,1005H865v-.8H696.3v.8Z" class="g0_1"/>
<path fill-rule="evenodd" d="M865,1005h.7v-.8H865v.8Z" class="g0_1"/>
<path fill-rule="evenodd" d="M100.1,1024.4h.8V1005h-.8v19.4Z" class="g0_1"/>
<path fill-rule="evenodd" d="M207.9,1024.4h.8V1005h-.8v19.4Z" class="g0_1"/>
<path fill-rule="evenodd" d="M272,1024.4h.7V1005H272v19.4Z" class="g0_1"/>
<path fill-rule="evenodd" d="M409.1,1024.4h.7V1005h-.7v19.4Z" class="g0_1"/>
<path fill-rule="evenodd" d="M494,1024.4h.7V1005H494v19.4Z" class="g0_1"/>
<path fill-rule="evenodd" d="M695.5,1024.4h.8V1005h-.8v19.4Z" class="g0_1"/>
<path fill-rule="evenodd" d="M865,1024.4h.7V1005H865v19.4Z" class="g0_1"/>
<path fill-rule="evenodd" d="M100.1,1025.2h.8v-.8h-.8v.8Z" class="g0_1"/>
<path fill-rule="evenodd" d="M207.9,1025.2h.8v-.8h-.8v.8Z" class="g0_1"/>
<path fill-rule="evenodd" d="M208.7,1025.2H272v-.8H208.7v.8Z" class="g0_1"/>
<path fill-rule="evenodd" d="M272,1025.2h.7v-.8H272v.8Z" class="g0_1"/>
<path fill-rule="evenodd" d="M272.7,1025.2H409.1v-.8H272.7v.8Z" class="g0_1"/>
<path fill-rule="evenodd" d="M409.1,1025.2h.7v-.8h-.7v.8Z" class="g0_1"/>
<path fill-rule="evenodd" d="M409.8,1025.2H494v-.8H409.8v.8Z" class="g0_1"/>
<path fill-rule="evenodd" d="M494,1025.2h.7v-.8H494v.8Z" class="g0_1"/>
<path fill-rule="evenodd" d="M494.7,1025.2H695.5v-.8H494.7v.8Z" class="g0_1"/>
<path fill-rule="evenodd" d="M695.5,1025.2h.8v-.8h-.8v.8Z" class="g0_1"/>
<path fill-rule="evenodd" d="M696.3,1025.2H865v-.8H696.3v.8Z" class="g0_1"/>
<path fill-rule="evenodd" d="M865,1025.2h.7v-.8H865v.8Z" class="g0_1"/>
<path fill-rule="evenodd" d="M100.1,1044.4h.8v-19.2h-.8v19.2Z" class="g0_1"/>
<path fill-rule="evenodd" d="M207.9,1044.4h.8v-19.2h-.8v19.2Z" class="g0_1"/>
<path fill-rule="evenodd" d="M272,1044.4h.7v-19.2H272v19.2Z" class="g0_1"/>
<path fill-rule="evenodd" d="M409.1,1044.4h.7v-19.2h-.7v19.2Z" class="g0_1"/>
<path fill-rule="evenodd" d="M494,1044.4h.7v-19.2H494v19.2Z" class="g0_1"/>
<path fill-rule="evenodd" d="M695.5,1044.4h.8v-19.2h-.8v19.2Z" class="g0_1"/>
<path fill-rule="evenodd" d="M865,1044.4h.7v-19.2H865v19.2Z" class="g0_1"/>
<path fill-rule="evenodd" d="M100.1,1045.2h.8v-.8h-.8v.8Z" class="g0_1"/>
<path fill-rule="evenodd" d="M207.9,1045.2h.8v-.8h-.8v.8Z" class="g0_1"/>
<path fill-rule="evenodd" d="M208.7,1045.2H272v-.8H208.7v.8Z" class="g0_1"/>
<path fill-rule="evenodd" d="M272,1045.2h.7v-.8H272v.8Z" class="g0_1"/>
<path fill-rule="evenodd" d="M272.7,1045.2H409.1v-.8H272.7v.8Z" class="g0_1"/>
<path fill-rule="evenodd" d="M409.1,1045.2h.7v-.8h-.7v.8Z" class="g0_1"/>
<path fill-rule="evenodd" d="M409.8,1045.2H494v-.8H409.8v.8Z" class="g0_1"/>
<path fill-rule="evenodd" d="M494,1045.2h.7v-.8H494v.8Z" class="g0_1"/>
<path fill-rule="evenodd" d="M494.7,1045.2H695.5v-.8H494.7v.8Z" class="g0_1"/>
<path fill-rule="evenodd" d="M695.5,1045.2h.8v-.8h-.8v.8Z" class="g0_1"/>
<path fill-rule="evenodd" d="M696.3,1045.2H865v-.8H696.3v.8Z" class="g0_1"/>
<path fill-rule="evenodd" d="M865,1045.2h.7v-.8H865v.8Z" class="g0_1"/>
<path fill-rule="evenodd" d="M100.1,1064.6h.8v-19.4h-.8v19.4Z" class="g0_1"/>
<path fill-rule="evenodd" d="M207.9,1064.6h.8v-19.4h-.8v19.4Z" class="g0_1"/>
<path fill-rule="evenodd" d="M272,1064.6h.7v-19.4H272v19.4Z" class="g0_1"/>
<path fill-rule="evenodd" d="M409.1,1064.6h.7v-19.4h-.7v19.4Z" class="g0_1"/>
<path fill-rule="evenodd" d="M494,1064.6h.7v-19.4H494v19.4Z" class="g0_1"/>
<path fill-rule="evenodd" d="M695.5,1064.6h.8v-19.4h-.8v19.4Z" class="g0_1"/>
<path fill-rule="evenodd" d="M865,1064.6h.7v-19.4H865v19.4Z" class="g0_1"/>
<path fill-rule="evenodd" d="M100.1,1065.3h.8v-.7h-.8v.7Z" class="g0_1"/>
<path fill-rule="evenodd" d="M100.9,1065.3h107v-.7h-107v.7Z" class="g0_1"/>
<path fill-rule="evenodd" d="M207.9,1065.3h.8v-.7h-.8v.7Z" class="g0_1"/>
<path fill-rule="evenodd" d="M208.7,1065.3H272v-.7H208.7v.7Z" class="g0_1"/>
<path fill-rule="evenodd" d="M272,1065.3h.7v-.7H272v.7Z" class="g0_1"/>
<path fill-rule="evenodd" d="M272.7,1065.3H409.1v-.7H272.7v.7Z" class="g0_1"/>
<path fill-rule="evenodd" d="M409.1,1065.3h.7v-.7h-.7v.7Z" class="g0_1"/>
<path fill-rule="evenodd" d="M409.8,1065.3H494v-.7H409.8v.7Z" class="g0_1"/>
<path fill-rule="evenodd" d="M494,1065.3h.7v-.7H494v.7Z" class="g0_1"/>
<path fill-rule="evenodd" d="M494.7,1065.3H695.5v-.7H494.7v.7Z" class="g0_1"/>
<path fill-rule="evenodd" d="M695.5,1065.3h.8v-.7h-.8v.7Z" class="g0_1"/>
<path fill-rule="evenodd" d="M696.3,1065.3H865v-.7H696.3v.7Z" class="g0_1"/>
<path fill-rule="evenodd" d="M865,1065.3h.7v-.7H865v.7Z" class="g0_1"/>
<path fill-rule="evenodd" d="M100.1,1084.6h.8v-19.3h-.8v19.3Z" class="g0_1"/>
<path fill-rule="evenodd" d="M207.9,1084.6h.8v-19.3h-.8v19.3Z" class="g0_1"/>
<path fill-rule="evenodd" d="M865,1084.6h.7v-19.3H865v19.3Z" class="g0_1"/>
<path fill-rule="evenodd" d="M100.1,1085.3h.8v-.7h-.8v.7Z" class="g0_1"/>
<path fill-rule="evenodd" d="M100.9,1085.3h107v-.7h-107v.7Z" class="g0_1"/>
<path fill-rule="evenodd" d="M207.9,1085.3h.8v-.7h-.8v.7Z" class="g0_1"/>
<path fill-rule="evenodd" d="M208.7,1085.3H865v-.7H208.7v.7Z" class="g0_1"/>
<path fill-rule="evenodd" d="M865,1085.3h.7v-.7H865v.7Z" class="g0_1"/>
<path fill-rule="evenodd" d="M100.1,1104.7h.8v-19.4h-.8v19.4Z" class="g0_1"/>
<path fill-rule="evenodd" d="M100.1,1105.5h.8v-.8h-.8v.8Z" class="g0_1"/>
<path fill-rule="evenodd" d="M100.1,1105.5h.8v-.8h-.8v.8Z" class="g0_1"/>
<path fill-rule="evenodd" d="M100.9,1105.5h107v-.8h-107v.8Z" class="g0_1"/>
<path fill-rule="evenodd" d="M207.9,1104.7h.8v-19.4h-.8v19.4Z" class="g0_1"/>
<path fill-rule="evenodd" d="M207.9,1105.5h.8v-.8h-.8v.8Z" class="g0_1"/>
<path fill-rule="evenodd" d="M208.7,1105.5H865v-.8H208.7v.8Z" class="g0_1"/>
<path fill-rule="evenodd" d="M865,1104.7h.7v-19.4H865v19.4Z" class="g0_1"/>
<path fill-rule="evenodd" d="M865,1105.5h.7v-.8H865v.8Z" class="g0_1"/>
<path fill-rule="evenodd" d="M865,1105.5h.7v-.8H865v.8Z" class="g0_1"/>
</svg>