<?xml version="1.0" encoding="UTF-8" standalone="no"?>
<!DOCTYPE svg PUBLIC "-//W3C//DTD SVG 1.1//EN"
"http://www.w3.org/Graphics/SVG/1.1/DTD/svg11.dtd">
<svg viewBox="0 0 935 1210" version="1.1" xmlns="http://www.w3.org/2000/svg" xmlns:xlink="http://www.w3.org/1999/xlink">
<defs>
</defs>
<image preserveAspectRatio="none" x="186" y="238" width="36" height="18" xlink:href="img/1.png"/>
<image preserveAspectRatio="none" x="186" y="265" width="36" height="19" xlink:href="img/2.png"/>
<image preserveAspectRatio="none" x="186" y="317" width="36" height="18" xlink:href="img/3.png"/>
<image preserveAspectRatio="none" x="186" y="369" width="36" height="18" xlink:href="img/4.png"/>
<image preserveAspectRatio="none" x="193" y="447" width="36" height="19" xlink:href="img/5.png"/>
<image preserveAspectRatio="none" x="165" y="517" width="37" height="18" xlink:href="img/6.png"/>
<image preserveAspectRatio="none" x="165" y="544" width="37" height="18" xlink:href="img/7.png"/>
<image preserveAspectRatio="none" x="165" y="571" width="37" height="18" xlink:href="img/8.png"/>
<image preserveAspectRatio="none" x="165" y="640" width="37" height="19" xlink:href="img/9.png"/>
<image preserveAspectRatio="none" x="165" y="692" width="37" height="18" xlink:href="img/10.png"/>
<image preserveAspectRatio="none" x="165" y="744" width="37" height="18" xlink:href="img/11.png"/>
<image preserveAspectRatio="none" x="165" y="771" width="37" height="18" xlink:href="img/12.png"/>
<image preserveAspectRatio="none" x="165" y="889" width="37" height="18" xlink:href="img/13.png"/>
<image preserveAspectRatio="none" x="165" y="941" width="37" height="18" xlink:href="img/14.png"/>
<image preserveAspectRatio="none" x="165" y="992" width="37" height="19" xlink:href="img/15.png"/>
</svg>